#!OML:ASF I:\salsa\salsa 7_09\Patient 1\Session 1\dancerfemale.ASF
:FULLY-SPECIFIED
:DEGREES
1748
root 16.0525 15.7613 12.8725 -356.158 584.944 364.58
lowerback 6.52544 9.77968 -1.10677
upperback -4.85964 13.267 4.68299
thorax -10.2357 6.61685 3.47043
lowerneck -5.10671 -5.44345 -11.444
upperneck 3.84653 -6.68142 4.35266
head 2.78208 -3.39567 3.19987
rclavicle -9.78518e-014 4.77083e-015
rhumerus -28.3397 14.9201 -83.913
rradius 71.7989
rwrist 13.0353
rhand -6.67095 -306.564
rfingers 7.12502
rthumb 19.1873 24.3623
lclavicle -9.78518e-014 4.77083e-015
lhumerus -38.2318 17.0885 75.5922
lradius 96.4359
lwrist -23.3308
lhand -25.7103 -327.195
lfingers 7.12502
lthumb 0.825573 422.783
rfemur -8.0086 -17.041 27.279
rtibia 46.7071
rfoot 10.1831 13.1454
rtoes -16.3538
lfemur -35.1509 2.56971 -24.23
ltibia 57.2186
lfoot -12.6853 -13.1327
ltoes -7.86078
1749
root 15.9318 15.8015 12.8042 -355.691 587.018 363.402
lowerback 6.73811 9.48613 -0.125993
upperback -4.75106 12.9126 3.65852
thorax -9.70363 6.35349 1.95174
lowerneck -4.41942 -5.84121 -11.6872
upperneck 3.42532 -7.33582 5.66561
head 2.37038 -3.67221 3.29404
rclavicle -2.22142e-014 1.27222e-014
rhumerus -28.8446 14.7981 -82.0428
rradius 71.2445
rwrist 13.0775
rhand -6.17674 -306.778
rfingers 7.12502
rthumb 19.6624 24.1963
lclavicle -2.22142e-014 1.27222e-014
lhumerus -34.9923 15.2968 78.4456
lradius 97.5238
lwrist -22.7018
lhand -24.5289 -328.292
lfingers 7.12502
lthumb 1.9666 421.679
rfemur -10.3674 -17.4558 26.0888
rtibia 50.6135
rfoot 13.4378 12.2883
rtoes -17.165
lfemur -32.9705 2.90175 -25.5971
ltibia 54.8925
lfoot -12.5105 -14.113
ltoes -9.24402
1750
root 15.8152 15.8315 12.7436 -355.221 588.809 362.185
lowerback 7.04496 9.19127 0.789614
upperback -4.58781 12.5591 2.72697
thorax -9.24264 6.10639 0.557889
lowerneck -3.69724 -6.14647 -11.9341
upperneck 2.77871 -7.83955 6.53248
head 2.14865 -3.90547 3.59928
rclavicle 6.20208e-014 5.56597e-015
rhumerus -29.3044 15.2062 -80.0484
rradius 70.9148
rwrist 13.0767
rhand -5.41075 -307.352
rfingers 7.12502
rthumb 20.3987 23.6996
lclavicle 6.20208e-014 5.56597e-015
lhumerus -32.1902 13.2945 81.1023
lradius 98.4895
lwrist -22.6737
lhand -23.2637 -328.742
lfingers 7.12502
lthumb 3.18848 421.213
rfemur -13.1527 -17.5425 24.8565
rtibia 55.0555
rfoot 16.0745 11.6067
rtoes -18.9515
lfemur -30.7873 3.12413 -26.8567
ltibia 52.7435
lfoot -12.4968 -14.8789
ltoes -11.3619
1751
root 15.706 15.842 12.6908 -354.351 590.358 360.284
lowerback 7.70867 8.8723 1.38662
upperback -4.42449 12.1486 1.64453
thorax -9.05474 5.84646 -0.87988
lowerneck -3.09612 -6.41513 -12.1227
upperneck 2.35508 -8.28387 7.35018
head 2.00947 -4.117 3.87872
rclavicle -1.40143e-014 -1.98785e-014
rhumerus -29.6938 15.7226 -78.1738
rradius 70.7664
rwrist 13.2474
rhand -4.1812 -308.157
rfingers 7.12502
rthumb 21.5799 23.0253
lclavicle -1.40143e-014 -1.98785e-014
lhumerus -29.8934 10.9966 83.3058
lradius 99.3673
lwrist -23.2235
lhand -22.3193 -328.555
lfingers 7.12502
lthumb 4.1004 421.385
rfemur -16.0383 -17.4768 23.0576
rtibia 59.6243
rfoot 17.5741 9.82356
rtoes -15.3148
lfemur -28.4735 3.08711 -28.4875
ltibia 50.6687
lfoot -12.3857 -15.1608
ltoes -11.3274
1752
root 15.6037 15.8478 12.6501 -352.83 591.936 357.333
lowerback 8.86817 8.41706 1.62551
upperback -4.20053 11.5091 0.351166
thorax -9.15261 5.48179 -2.39735
lowerneck -2.60251 -6.62532 -12.366
upperneck 1.9571 -8.64058 8.33932
head 1.9019 -4.28597 4.22075
rclavicle 2.90723e-015 -1.82882e-014
rhumerus -29.8252 16.3893 -76.3192
rradius 70.8054
rwrist 13.5918
rhand -2.52028 -308.96
rfingers 7.12502
rthumb 23.1743 22.4144
lclavicle 2.90723e-015 -1.82882e-014
lhumerus -27.9692 8.65916 85.0291
lradius 100.263
lwrist -23.5771
lhand -21.4395 -328.579
lfingers 7.12502
lthumb 4.95 421.343
rfemur -18.8481 -17.5853 20.4183
rtibia 64.118
rfoot 16.8727 5.41002
rtoes -13.1502
lfemur -26.015 2.52734 -30.6081
ltibia 48.6447
lfoot -11.7769 -15.2474
ltoes -6.10764
1753
root 15.5065 15.8461 12.609 -350.762 593.321 353.588
lowerback 10.0161 7.91173 1.45665
upperback -3.72174 10.7187 -0.957878
thorax -9.08658 5.07326 -3.67277
lowerneck -2.24593 -6.76441 -12.7168
upperneck 1.33406 -8.86992 9.36705
head 1.74785 -4.39197 4.59849
rclavicle -6.71768e-014 5.56597e-015
rhumerus -29.4085 17.1484 -74.2674
rradius 70.9293
rwrist 14.1384
rhand -0.618248 -310.069
rfingers 7.12502
rthumb 24.9981 21.546
lclavicle -6.71768e-014 5.56597e-015
lhumerus -26.1906 6.46092 86.5575
lradius 101.188
lwrist -23.7734
lhand -21.2853 -328.758
lfingers 7.12502
lthumb 5.09889 421.16
rfemur -21.4707 -17.4188 17.0866
rtibia 68.2286
rfoot 14.664 0.898067
rtoes -15.3135
lfemur -23.4761 1.60977 -33.0185
ltibia 46.7056
lfoot -10.7516 -15.2357
ltoes 1.20091
1754
root 15.421 15.8245 12.5591 -348.845 594.33 350.171
lowerback 11.0475 7.45166 1.25705
upperback -3.1905 9.9701 -2.08264
thorax -8.96852 4.69027 -4.72405
lowerneck -2.30141 -6.89378 -13.097
upperneck 0.96907 -9.03798 10.2174
head 1.72682 -4.46548 4.91228
rclavicle -2.00738e-013 1.03368e-014
rhumerus -28.8216 17.9664 -72.0029
rradius 71.2367
rwrist 14.963
rhand 1.4463 -311.254
rfingers 7.12502
rthumb 26.9749 20.6517
lclavicle -2.00738e-013 1.03368e-014
lhumerus -24.6694 4.42136 87.9231
lradius 102.19
lwrist -23.7469
lhand -21.1166 -328.945
lfingers 7.12502
lthumb 5.26172 420.969
rfemur -24.1324 -16.5474 13.959
rtibia 71.7018
rfoot 12.9484 -1.69236
rtoes -10.0429
lfemur -20.9185 1.37278 -35.2861
ltibia 44.8441
lfoot -10.3507 -14.9731
ltoes 2.34181
